<mxfile host="Electron" agent="Mozilla/5.0 (X11; Linux x86_64) AppleWebKit/537.36 (KHTML, like Gecko) draw.io/26.2.2 Chrome/134.0.6998.178 Electron/35.1.2 Safari/537.36" version="26.2.2">
  <diagram name="Page-1" id="MenAG_J8htIQKPgtvzIw">
    <mxGraphModel dx="898" dy="411" grid="1" gridSize="10" guides="1" tooltips="1" connect="1" arrows="1" fold="1" page="1" pageScale="1" pageWidth="850" pageHeight="1100" math="0" shadow="0">
      <root>
        <mxCell id="0" />
        <mxCell id="1" parent="0" />
        <mxCell id="TQkRK-5CXeIkxpvbA-wd-3" value="" style="edgeStyle=orthogonalEdgeStyle;rounded=0;orthogonalLoop=1;jettySize=auto;html=1;" edge="1" parent="1" source="TQkRK-5CXeIkxpvbA-wd-1" target="TQkRK-5CXeIkxpvbA-wd-2">
          <mxGeometry relative="1" as="geometry" />
        </mxCell>
        <mxCell id="TQkRK-5CXeIkxpvbA-wd-1" value="Main" style="rounded=1;whiteSpace=wrap;html=1;arcSize=50;" vertex="1" parent="1">
          <mxGeometry x="278" y="50" width="120" height="60" as="geometry" />
        </mxCell>
        <mxCell id="TQkRK-5CXeIkxpvbA-wd-5" value="" style="edgeStyle=orthogonalEdgeStyle;rounded=0;orthogonalLoop=1;jettySize=auto;html=1;" edge="1" parent="1" source="TQkRK-5CXeIkxpvbA-wd-2" target="TQkRK-5CXeIkxpvbA-wd-4">
          <mxGeometry relative="1" as="geometry" />
        </mxCell>
        <mxCell id="TQkRK-5CXeIkxpvbA-wd-2" value="Enter the size of the array:&amp;nbsp;" style="shape=parallelogram;perimeter=parallelogramPerimeter;whiteSpace=wrap;html=1;fixedSize=1;" vertex="1" parent="1">
          <mxGeometry x="198" y="170" width="280" height="60" as="geometry" />
        </mxCell>
        <mxCell id="TQkRK-5CXeIkxpvbA-wd-8" value="" style="edgeStyle=orthogonalEdgeStyle;rounded=0;orthogonalLoop=1;jettySize=auto;html=1;" edge="1" parent="1" source="TQkRK-5CXeIkxpvbA-wd-4" target="TQkRK-5CXeIkxpvbA-wd-6">
          <mxGeometry relative="1" as="geometry" />
        </mxCell>
        <mxCell id="TQkRK-5CXeIkxpvbA-wd-4" value="length" style="shape=parallelogram;perimeter=parallelogramPerimeter;whiteSpace=wrap;html=1;fixedSize=1;" vertex="1" parent="1">
          <mxGeometry x="278" y="280" width="120" height="60" as="geometry" />
        </mxCell>
        <mxCell id="TQkRK-5CXeIkxpvbA-wd-9" value="" style="edgeStyle=orthogonalEdgeStyle;rounded=0;orthogonalLoop=1;jettySize=auto;html=1;" edge="1" parent="1" source="TQkRK-5CXeIkxpvbA-wd-6" target="TQkRK-5CXeIkxpvbA-wd-7">
          <mxGeometry relative="1" as="geometry" />
        </mxCell>
        <mxCell id="TQkRK-5CXeIkxpvbA-wd-6" value="Enter the elements of the array:" style="shape=parallelogram;perimeter=parallelogramPerimeter;whiteSpace=wrap;html=1;fixedSize=1;" vertex="1" parent="1">
          <mxGeometry x="198" y="380" width="280" height="60" as="geometry" />
        </mxCell>
        <mxCell id="TQkRK-5CXeIkxpvbA-wd-13" value="" style="edgeStyle=orthogonalEdgeStyle;rounded=0;orthogonalLoop=1;jettySize=auto;html=1;" edge="1" parent="1" source="TQkRK-5CXeIkxpvbA-wd-7" target="TQkRK-5CXeIkxpvbA-wd-11">
          <mxGeometry relative="1" as="geometry" />
        </mxCell>
        <mxCell id="TQkRK-5CXeIkxpvbA-wd-7" value="array" style="shape=parallelogram;perimeter=parallelogramPerimeter;whiteSpace=wrap;html=1;fixedSize=1;" vertex="1" parent="1">
          <mxGeometry x="278" y="500" width="120" height="60" as="geometry" />
        </mxCell>
        <mxCell id="TQkRK-5CXeIkxpvbA-wd-10" value="" style="edgeStyle=orthogonalEdgeStyle;rounded=0;orthogonalLoop=1;jettySize=auto;html=1;" edge="1" parent="1" source="TQkRK-5CXeIkxpvbA-wd-11" target="TQkRK-5CXeIkxpvbA-wd-12">
          <mxGeometry relative="1" as="geometry" />
        </mxCell>
        <mxCell id="TQkRK-5CXeIkxpvbA-wd-11" value="Enter the number to search for:" style="shape=parallelogram;perimeter=parallelogramPerimeter;whiteSpace=wrap;html=1;fixedSize=1;" vertex="1" parent="1">
          <mxGeometry x="198" y="610" width="280" height="60" as="geometry" />
        </mxCell>
        <mxCell id="TQkRK-5CXeIkxpvbA-wd-16" style="edgeStyle=orthogonalEdgeStyle;rounded=0;orthogonalLoop=1;jettySize=auto;html=1;" edge="1" parent="1" source="TQkRK-5CXeIkxpvbA-wd-12" target="TQkRK-5CXeIkxpvbA-wd-14">
          <mxGeometry relative="1" as="geometry" />
        </mxCell>
        <mxCell id="TQkRK-5CXeIkxpvbA-wd-12" value="target" style="shape=parallelogram;perimeter=parallelogramPerimeter;whiteSpace=wrap;html=1;fixedSize=1;" vertex="1" parent="1">
          <mxGeometry x="278" y="740" width="120" height="60" as="geometry" />
        </mxCell>
        <mxCell id="TQkRK-5CXeIkxpvbA-wd-19" style="edgeStyle=orthogonalEdgeStyle;rounded=0;orthogonalLoop=1;jettySize=auto;html=1;" edge="1" parent="1" source="TQkRK-5CXeIkxpvbA-wd-14" target="TQkRK-5CXeIkxpvbA-wd-17">
          <mxGeometry relative="1" as="geometry" />
        </mxCell>
        <mxCell id="TQkRK-5CXeIkxpvbA-wd-14" value="i = 0&amp;nbsp;" style="rounded=0;whiteSpace=wrap;html=1;" vertex="1" parent="1">
          <mxGeometry x="278" y="850" width="120" height="60" as="geometry" />
        </mxCell>
        <mxCell id="TQkRK-5CXeIkxpvbA-wd-21" style="edgeStyle=orthogonalEdgeStyle;rounded=0;orthogonalLoop=1;jettySize=auto;html=1;" edge="1" parent="1" source="TQkRK-5CXeIkxpvbA-wd-17" target="TQkRK-5CXeIkxpvbA-wd-20">
          <mxGeometry relative="1" as="geometry" />
        </mxCell>
        <mxCell id="TQkRK-5CXeIkxpvbA-wd-29" style="edgeStyle=orthogonalEdgeStyle;rounded=0;orthogonalLoop=1;jettySize=auto;html=1;entryX=0.5;entryY=0;entryDx=0;entryDy=0;" edge="1" parent="1" source="TQkRK-5CXeIkxpvbA-wd-17" target="TQkRK-5CXeIkxpvbA-wd-28">
          <mxGeometry relative="1" as="geometry" />
        </mxCell>
        <mxCell id="TQkRK-5CXeIkxpvbA-wd-17" value="repeat length times" style="shape=hexagon;perimeter=hexagonPerimeter2;whiteSpace=wrap;html=1;fixedSize=1;" vertex="1" parent="1">
          <mxGeometry x="194" y="960" width="288" height="80" as="geometry" />
        </mxCell>
        <mxCell id="TQkRK-5CXeIkxpvbA-wd-23" style="edgeStyle=orthogonalEdgeStyle;rounded=0;orthogonalLoop=1;jettySize=auto;html=1;" edge="1" parent="1" source="TQkRK-5CXeIkxpvbA-wd-20" target="TQkRK-5CXeIkxpvbA-wd-22">
          <mxGeometry relative="1" as="geometry" />
        </mxCell>
        <mxCell id="TQkRK-5CXeIkxpvbA-wd-27" style="edgeStyle=orthogonalEdgeStyle;rounded=0;orthogonalLoop=1;jettySize=auto;html=1;entryX=0.5;entryY=0;entryDx=0;entryDy=0;" edge="1" parent="1" source="TQkRK-5CXeIkxpvbA-wd-20" target="TQkRK-5CXeIkxpvbA-wd-26">
          <mxGeometry relative="1" as="geometry" />
        </mxCell>
        <mxCell id="TQkRK-5CXeIkxpvbA-wd-20" value="array[i] == target" style="rhombus;whiteSpace=wrap;html=1;" vertex="1" parent="1">
          <mxGeometry x="248" y="1120" width="180" height="80" as="geometry" />
        </mxCell>
        <mxCell id="TQkRK-5CXeIkxpvbA-wd-24" style="edgeStyle=orthogonalEdgeStyle;rounded=0;orthogonalLoop=1;jettySize=auto;html=1;entryX=0;entryY=0.5;entryDx=0;entryDy=0;" edge="1" parent="1" source="TQkRK-5CXeIkxpvbA-wd-22" target="TQkRK-5CXeIkxpvbA-wd-17">
          <mxGeometry relative="1" as="geometry">
            <Array as="points">
              <mxPoint x="338" y="1380" />
              <mxPoint x="123" y="1380" />
              <mxPoint x="123" y="1000" />
            </Array>
          </mxGeometry>
        </mxCell>
        <mxCell id="TQkRK-5CXeIkxpvbA-wd-22" value="i = i + 1" style="rounded=0;whiteSpace=wrap;html=1;" vertex="1" parent="1">
          <mxGeometry x="278" y="1280" width="120" height="60" as="geometry" />
        </mxCell>
        <mxCell id="TQkRK-5CXeIkxpvbA-wd-25" value="false" style="text;html=1;align=center;verticalAlign=middle;resizable=0;points=[];autosize=1;strokeColor=none;fillColor=none;" vertex="1" parent="1">
          <mxGeometry x="348" y="1220" width="50" height="30" as="geometry" />
        </mxCell>
        <mxCell id="TQkRK-5CXeIkxpvbA-wd-32" style="edgeStyle=orthogonalEdgeStyle;rounded=0;orthogonalLoop=1;jettySize=auto;html=1;" edge="1" parent="1" source="TQkRK-5CXeIkxpvbA-wd-26" target="TQkRK-5CXeIkxpvbA-wd-30">
          <mxGeometry relative="1" as="geometry" />
        </mxCell>
        <mxCell id="TQkRK-5CXeIkxpvbA-wd-26" value="Number found at index: `i`" style="shape=parallelogram;perimeter=parallelogramPerimeter;whiteSpace=wrap;html=1;fixedSize=1;" vertex="1" parent="1">
          <mxGeometry x="523" y="1200" width="180" height="60" as="geometry" />
        </mxCell>
        <mxCell id="TQkRK-5CXeIkxpvbA-wd-31" style="edgeStyle=orthogonalEdgeStyle;rounded=0;orthogonalLoop=1;jettySize=auto;html=1;" edge="1" parent="1" source="TQkRK-5CXeIkxpvbA-wd-28" target="TQkRK-5CXeIkxpvbA-wd-30">
          <mxGeometry relative="1" as="geometry">
            <Array as="points">
              <mxPoint x="613" y="1120" />
              <mxPoint x="733" y="1120" />
            </Array>
          </mxGeometry>
        </mxCell>
        <mxCell id="TQkRK-5CXeIkxpvbA-wd-28" value="Number not found in the array" style="shape=parallelogram;perimeter=parallelogramPerimeter;whiteSpace=wrap;html=1;fixedSize=1;" vertex="1" parent="1">
          <mxGeometry x="523" y="1040" width="180" height="60" as="geometry" />
        </mxCell>
        <mxCell id="TQkRK-5CXeIkxpvbA-wd-30" value="END" style="rounded=1;whiteSpace=wrap;html=1;arcSize=50;" vertex="1" parent="1">
          <mxGeometry x="673" y="1350" width="120" height="60" as="geometry" />
        </mxCell>
      </root>
    </mxGraphModel>
  </diagram>
</mxfile>
